<?xml version="1.0" encoding="UTF-8" standalone="no"?><!DOCTYPE svg PUBLIC "-//W3C//DTD SVG 1.1//EN" "http://www.w3.org/Graphics/SVG/1.1/DTD/svg11.dtd"><svg width="100%" height="100%" viewBox="0 0 1392 768" version="1.1" xmlns="http://www.w3.org/2000/svg" xmlns:xlink="http://www.w3.org/1999/xlink" xml:space="preserve" xmlns:serif="http://www.serif.com/" style="fill-rule:evenodd;clip-rule:evenodd;"><path d="M73.21,43.03c6.06,4.13 11.53,9.05 17.65,13.09c13.22,8.61 26.86,16.83 41.71,22.33c23.91,9.95 49.7,14.47 75.41,16.44c4.99,0.62 10,0.88 15.03,0.73c67.33,-0.02 134.66,-0.01 201.99,-0.01c8.33,0.14 16.66,-0.44 25,-0.27c226.69,0.02 453.37,-0.03 680.06,0.01c18.65,0.72 37.27,2.44 55.78,4.8c16.27,2.53 32.59,5.78 47.85,12.14c17.85,7.17 34.11,18.93 45.48,34.55c7.58,9.93 12.61,21.51 16.78,33.21c1.21,3.69 1.23,7.65 2.66,11.29c1.13,2.79 1.1,5.93 -0.05,8.71c0.41,0.14 1.24,0.41 1.66,0.54c1.29,6.72 1.75,13.58 1.68,20.42c-0.19,23.33 -0.13,46.66 -0.14,69.99c-0.03,82.67 -0.03,165.33 -0.02,248c-0.04,6.01 0.28,12.03 -0.14,18.04c-6.45,-5.98 -14.05,-10.48 -21.43,-15.19c-10.55,-6.66 -21.99,-11.75 -33.46,-16.58c-39.05,-14.83 -81.18,-19.4 -122.71,-19.6c-138.67,0.06 -277.33,-0.03 -416,0.12c-162.33,-0.17 -324.67,0.09 -487,-0.06c-8.04,-0.29 -16.13,0.42 -24.12,-0.75c-21.38,-1.91 -42.8,-5.37 -63.01,-12.84c-8.82,-2.67 -17.16,-6.64 -25.43,-10.67c-9.85,-5.66 -19.22,-12.94 -25.02,-22.89c-6.84,-10.52 -10.26,-23.07 -10.46,-35.56c0.22,-126.66 -0.03,-253.33 0.25,-379.99m898.19,154.45c-8.41,0.85 -16.76,2.47 -24.8,5.11c-11.05,3.28 -21.73,8.11 -31.05,14.96c-24.24,16.32 -41.63,43.15 -44.74,72.39c-1.32,9.21 -0.91,18.54 -0.22,27.78c2.75,20.87 12,40.89 26.34,56.33c11.47,11.13 25.3,19.74 40.19,25.47c3.11,0.94 6.25,1.78 9.34,2.79c6.34,1.78 12.9,2.59 19.4,3.64c6.65,1.18 13.43,0.6 20.15,0.73c4.54,-0.13 9.12,0.25 13.65,-0.34c10.82,-2.61 22.03,-3.93 32.34,-8.35c13.38,-5.24 26.03,-12.57 36.57,-22.41c13.02,-11.71 21.93,-27.49 26.73,-44.24c6.2,-22.53 5.09,-46.94 -2.82,-68.91c-3.55,-9.12 -8.64,-17.58 -14.62,-25.31c-14.84,-17.85 -35.71,-30.43 -58.26,-35.75c-15.68,-4.08 -32.08,-5.33 -48.2,-3.89m-790.02,1.91c-0.01,3.06 0,6.12 0.04,9.18c5.99,1.28 12.21,1.74 17.97,3.99c2.67,1.06 5.55,2.78 6.26,5.79c1.02,4.48 0.3,9.11 0.05,13.64c-2.42,47.01 -4.71,94.03 -7.66,141.02c-0.45,5.32 -0.42,11.5 -4.47,15.54c-6.36,4.02 -13.96,5.24 -21.11,7.16c0.11,2.84 0.2,5.69 0.34,8.53c7.09,0.43 14.15,-0.65 21.24,-0.59c5.54,0.06 11.06,-0.71 16.59,-0.27c6.12,0.46 12.26,0.07 18.37,0.58c4.05,0.34 8.12,0.44 12.19,0.29c0.12,-2.85 0.2,-5.7 0.32,-8.55c-7.1,-2.32 -14.74,-3.19 -21.32,-6.93c-2.31,-1.29 -4.44,-3.27 -5,-5.96c-1.84,-9.56 0.85,-19.19 0.45,-28.8c-0.02,-4.66 1.06,-9.25 0.98,-13.92c-0.15,-5.71 1.28,-11.32 1.01,-17.04c-0.19,-5.36 1.19,-10.62 1,-15.98c-0.24,-5.37 1.18,-10.63 1,-16c-0.2,-5.7 1.29,-11.3 1.01,-17.01c-0.19,-5.02 0.89,-9.97 1,-14.98c0.11,-8.52 0.76,-17.02 1.61,-25.5c1.77,2.41 3.19,5.06 4.32,7.83c2.01,4.86 4.52,9.5 6.72,14.28c4.92,11.26 10.95,22 15.92,33.24c16.33,33.04 31.87,66.47 48.49,99.37c2.99,6.03 5.73,12.2 9.14,18.01c2.11,0 4.23,0.01 6.35,0.02c6.02,-9.83 9.7,-20.86 15.13,-31.01c6.02,-12.98 11.68,-26.13 18.04,-38.96c10.3,-22.88 21.23,-45.46 31.77,-68.22c4.64,-10.17 9.1,-20.45 14.42,-30.28c2.1,28.66 2.52,57.41 4.38,86.09c0.84,14.68 1.58,29.37 2.3,44.06c0.08,4.66 0.38,9.35 -0.03,14.02c-0.26,4.19 -4.03,7.01 -7.59,8.53c-6.01,2.38 -12.51,3.03 -18.79,4.39c-0.16,3.07 -0.15,6.15 0.03,9.23c5.06,0.49 10.14,0.5 15.22,0.44c4.33,-0.04 8.52,-1.53 12.87,-1.3c13.01,0.26 26.05,-0.5 39.03,0.69c5.06,0.37 10.14,0.33 15.21,0.18c0.11,-2.84 0.17,-5.68 0.28,-8.51c-6.85,-2.26 -14.35,-2.79 -20.63,-6.54c-4.43,-2.73 -4.34,-8.5 -4.72,-13.07c-1.85,-34.95 -3.64,-69.9 -5.52,-104.84c-0.52,-14.07 -1.86,-28.1 -2.37,-42.18c-0.02,-3.74 -0.36,-7.59 0.65,-11.24c0.79,-2.65 3.34,-4.19 5.74,-5.2c5.66,-2.31 11.82,-2.91 17.87,-3.18c0.2,-3.37 0.24,-6.75 0.11,-10.12c-6.87,0.28 -13.73,0.46 -20.59,0.85c-9.64,0.49 -19.33,-0.31 -28.94,0.73c-2.4,0.35 -5,0.64 -6.96,2.18c-1.68,1.53 -2.42,3.76 -3.33,5.77c-2.46,6.05 -5.3,11.93 -8.07,17.83c-9.87,22.08 -19.68,44.18 -29.97,66.07c-6.42,15.03 -13.73,29.66 -20.43,44.57c-3.87,7.65 -6.81,15.76 -11.27,23.1c-3.04,-5.22 -5.55,-10.72 -8.27,-16.1c-5.1,-11.12 -10.65,-22.03 -15.99,-33.04c-4.81,-10.75 -10.4,-21.13 -15.24,-31.87c-3.52,-7.68 -7.45,-15.16 -11.12,-22.77c-5.4,-11.86 -11.59,-23.34 -16.75,-35.3c-1.7,-3.64 -3.53,-7.22 -5.14,-10.9c-1.14,-2.4 -2.14,-4.98 -4.02,-6.92c-2.56,-2.31 -6.19,-2.7 -9.49,-2.86c-8.28,-0.18 -16.57,0.14 -24.85,-0.13c-8.59,-0.53 -17.17,-1.32 -25.78,-1.13m307.04,-0.09c-0.11,3.16 -0.15,6.31 -0.15,9.47c6.34,1.15 12.8,1.9 18.92,4c2.76,0.95 5.7,2.57 6.59,5.57c1.03,3.79 0.55,7.78 0.63,11.66c-0.02,49.67 -0.01,99.34 -0.01,149c-0.12,2.4 -0.17,4.92 -1.28,7.11c-0.96,1.73 -2.78,2.66 -4.37,3.7c-2.79,1.63 -5.69,3.29 -8.97,3.59c-3.9,0.45 -7.79,0.99 -11.63,1.8c-0.08,2.99 -0.08,5.98 -0.07,8.98c10.98,0.57 21.93,-0.95 32.91,-0.83c8.95,0.03 17.91,-0.12 26.86,0.11c8.84,0.61 17.7,0.74 26.57,0.93c-0.04,-3.08 -0.12,-6.15 -0.34,-9.22c-5.54,-1.01 -11.05,-2.23 -16.48,-3.76c-3.19,-1.04 -6.85,-2.43 -8.32,-5.71c-1.48,-3.71 -1.32,-7.79 -1.43,-11.7c-0.37,-44 -0.08,-88 -0.18,-132c0.05,-6.34 -0.18,-12.69 0.33,-19.01c0.28,-2.6 0.65,-5.47 2.58,-7.41c2.44,-2.32 5.79,-3.3 8.99,-4.07c4.7,-1.03 9.48,-1.7 14.22,-2.63c0.1,-3.19 0.06,-6.39 -0.16,-9.58c-8.27,0.48 -16.54,0.58 -24.79,1.21c-10.3,0.22 -20.6,0.11 -30.9,0.1c-9.84,-0.39 -19.68,-0.97 -29.52,-1.31m118.99,0.04c-0.26,3.16 -0.33,6.32 -0.22,9.49c5.61,0.89 11.23,1.81 16.76,3.13c3.56,0.91 7.48,2.44 9.23,5.93c2.13,4.03 1.32,8.75 1.44,13.11c-0.05,48.99 0.04,97.98 -0.01,146.97c-0.12,2.68 -0.27,5.55 -1.74,7.9c-2.07,2.89 -5.54,4.29 -8.83,5.25c-5.57,1.53 -11.16,2.96 -16.8,4.17c-0.05,2.94 -0.07,5.89 -0.09,8.84c10.62,0.61 21.22,-0.95 31.84,-0.77c14.35,0.01 28.69,-0.05 43.04,0.03c9.65,0.41 19.31,0.26 28.97,0.28c7.98,-0.1 16.01,0.38 23.93,-0.82c25.98,-2.65 52.15,-11.44 71.91,-29.02c7.17,-5.92 12.56,-13.6 17.66,-21.29c10.64,-16.71 14.48,-36.96 13.62,-56.55c-1,-13.59 -3.1,-27.44 -9.35,-39.7c-8.13,-16.87 -21.71,-31.13 -38.42,-39.67c-15.61,-8.71 -33.21,-13.31 -50.93,-15.04c-20.05,-2.47 -40.28,-1.29 -60.42,-1.25c-23.87,-0.09 -47.75,0.44 -71.59,-0.99m516.88,33.94c-3.64,6.18 -4.81,14.38 -1.44,20.91c2.22,4.4 7.06,6.22 10.5,9.43c1.95,1.69 1.59,4.53 1.01,6.76c-1.4,4.94 -4.19,9.32 -6.51,13.86c1.52,1.13 3.14,2.15 4.84,3.04c6.11,-9.7 9.36,-20.86 11.54,-32.02c0.99,-5.25 1.27,-10.82 -0.53,-15.93c-1.45,-4.32 -3.97,-8.83 -8.4,-10.62c-4.18,-1.55 -8.92,0.83 -11.01,4.57m29.95,95.95c-3.93,4.86 -5.52,11.49 -4.09,17.59c1.15,5.59 5.21,10.11 9.91,13.12c7.96,5.08 17.54,7.11 25.13,12.86c6.63,5.25 6.77,17.13 -0.58,21.84c-8,4.68 -19,2.71 -25.31,-3.94c-4.11,-3.79 -5.2,-9.49 -7.97,-14.15c-1.35,0.35 -2.7,0.69 -4.03,1.03c0.78,6.4 1.68,12.79 2.99,19.11c8.94,5.34 19.73,7.03 29.97,5.57c8.76,-1.39 17.41,-6.66 20.73,-15.19c2.07,-6.06 2.1,-13.18 -1.32,-18.76c-3.44,-5.94 -9.69,-9.47 -15.82,-12.1c-6.06,-2.42 -12.21,-4.79 -17.65,-8.43c-2.44,-1.64 -4.34,-4.06 -5.25,-6.85c-1.92,-5.3 1.09,-11.55 5.99,-14.06c6.39,-3.26 14.7,-2.66 20.41,1.77c3.96,3.13 5.78,8.01 7.68,12.53c1.25,-0.09 2.52,-0.21 3.8,-0.35c-0.63,-5.82 -1.35,-11.63 -2.4,-17.39c-7.16,-2.27 -14.55,-4.69 -22.16,-4.04c-7.55,0.62 -15.34,3.63 -20.03,9.84Z" style="fill:#af2025;fill-rule:nonzero;stroke:#af2025;stroke-width:0.09px;"/><path d="M971.4,197.48c16.12,-1.44 32.52,-0.19 48.2,3.89c22.55,5.32 43.42,17.9 58.26,35.75c5.98,7.73 11.07,16.19 14.62,25.31c7.91,21.97 9.02,46.38 2.82,68.91c-4.8,16.75 -13.71,32.53 -26.73,44.24c-10.54,9.84 -23.19,17.17 -36.57,22.41c-10.31,4.42 -21.52,5.74 -32.34,8.35c-4.53,0.59 -9.11,0.21 -13.65,0.34c-6.72,-0.13 -13.5,0.45 -20.15,-0.73c-6.5,-1.05 -13.06,-1.86 -19.4,-3.64c-3.09,-1.01 -6.23,-1.85 -9.34,-2.79c-14.89,-5.73 -28.72,-14.34 -40.19,-25.47c-14.34,-15.44 -23.59,-35.46 -26.34,-56.33c-0.69,-9.24 -1.1,-18.57 0.22,-27.78c3.11,-29.24 20.5,-56.07 44.74,-72.39c9.32,-6.85 20,-11.68 31.05,-14.96c8.04,-2.64 16.39,-4.26 24.8,-5.11m-4.03,14.92c-7.4,1.18 -14.61,3.42 -21.41,6.56c-16.51,7.14 -29.72,21.56 -35.39,38.63c-3.36,9.06 -4.6,18.79 -4.58,28.41c0.22,14.66 2.08,29.39 6.63,43.37c4.99,17.64 14.94,34.15 29.37,45.63c5.93,4.25 12.09,8.34 18.87,11.13c18.7,7.58 40.21,6.9 58.9,-0.35c8.26,-3.5 16,-8.35 22.67,-14.36c12.08,-11.98 19.83,-28.41 20.85,-45.44c1.16,-15.87 -0.21,-31.9 -3.86,-47.38c-3.11,-14.53 -9.52,-28.47 -19.17,-39.82c-6.92,-8.3 -15.93,-14.67 -25.6,-19.37c-14.54,-7.23 -31.3,-9.2 -47.28,-7.01Z" style="fill:#fffffe;fill-rule:nonzero;stroke:#fffffe;stroke-width:0.09px;"/><path d="M181.38,199.39c8.61,-0.19 17.19,0.6 25.78,1.13c8.28,0.27 16.57,-0.05 24.85,0.13c3.3,0.16 6.93,0.55 9.49,2.86c1.88,1.94 2.88,4.52 4.02,6.92c1.61,3.68 3.44,7.26 5.14,10.9c5.16,11.96 11.35,23.44 16.75,35.3c3.67,7.61 7.6,15.09 11.12,22.77c4.84,10.74 10.43,21.12 15.24,31.87c5.34,11.01 10.89,21.92 15.99,33.04c2.72,5.38 5.23,10.88 8.27,16.1c4.46,-7.34 7.4,-15.45 11.27,-23.1c6.7,-14.91 14.01,-29.54 20.43,-44.57c10.29,-21.89 20.1,-43.99 29.97,-66.07c2.77,-5.9 5.61,-11.78 8.07,-17.83c0.91,-2.01 1.65,-4.24 3.33,-5.77c1.96,-1.54 4.56,-1.83 6.96,-2.18c9.61,-1.04 19.3,-0.24 28.94,-0.73c6.86,-0.39 13.72,-0.57 20.59,-0.85c0.13,3.37 0.09,6.75 -0.11,10.12c-6.05,0.27 -12.21,0.87 -17.87,3.18c-2.4,1.01 -4.95,2.55 -5.74,5.2c-1.01,3.65 -0.67,7.5 -0.65,11.24c0.51,14.08 1.85,28.11 2.37,42.18c1.88,34.94 3.67,69.89 5.52,104.84c0.38,4.57 0.29,10.34 4.72,13.07c6.28,3.75 13.78,4.28 20.63,6.54c-0.11,2.83 -0.17,5.67 -0.28,8.51c-5.07,0.15 -10.15,0.19 -15.21,-0.18c-12.98,-1.19 -26.02,-0.43 -39.03,-0.69c-4.35,-0.23 -8.54,1.26 -12.87,1.3c-5.08,0.06 -10.16,0.05 -15.22,-0.44c-0.18,-3.08 -0.19,-6.16 -0.03,-9.23c6.28,-1.36 12.78,-2.01 18.79,-4.39c3.56,-1.52 7.33,-4.34 7.59,-8.53c0.41,-4.67 0.11,-9.36 0.03,-14.02c-0.72,-14.69 -1.46,-29.38 -2.3,-44.06c-1.86,-28.68 -2.28,-57.43 -4.38,-86.09c-5.32,9.83 -9.78,20.11 -14.42,30.28c-10.54,22.76 -21.47,45.34 -31.77,68.22c-6.36,12.83 -12.02,25.98 -18.04,38.96c-5.43,10.15 -9.11,21.18 -15.13,31.01c-2.12,-0.01 -4.24,-0.02 -6.35,-0.02c-3.41,-5.81 -6.15,-11.98 -9.14,-18.01c-16.62,-32.9 -32.16,-66.33 -48.49,-99.37c-4.97,-11.24 -11,-21.98 -15.92,-33.24c-2.2,-4.78 -4.71,-9.42 -6.72,-14.28c-1.13,-2.77 -2.55,-5.42 -4.32,-7.83c-0.85,8.48 -1.5,16.98 -1.61,25.5c-0.11,5.01 -1.19,9.96 -1,14.98c0.28,5.71 -1.21,11.31 -1.01,17.01c0.18,5.37 -1.24,10.63 -1,16c0.19,5.36 -1.19,10.62 -1,15.98c0.27,5.72 -1.16,11.33 -1.01,17.04c0.08,4.67 -1,9.26 -0.98,13.92c0.4,9.61 -2.29,19.24 -0.45,28.8c0.56,2.69 2.69,4.67 5,5.96c6.58,3.74 14.22,4.61 21.32,6.93c-0.12,2.85 -0.2,5.7 -0.32,8.55c-4.07,0.15 -8.14,0.05 -12.19,-0.29c-6.11,-0.51 -12.25,-0.12 -18.37,-0.58c-5.53,-0.44 -11.05,0.33 -16.59,0.27c-7.09,-0.06 -14.15,1.02 -21.24,0.59c-0.14,-2.84 -0.23,-5.69 -0.34,-8.53c7.15,-1.92 14.75,-3.14 21.11,-7.16c4.05,-4.04 4.02,-10.22 4.47,-15.54c2.95,-46.99 5.24,-94.01 7.66,-141.02c0.25,-4.53 0.97,-9.16 -0.05,-13.64c-0.71,-3.01 -3.59,-4.73 -6.26,-5.79c-5.76,-2.25 -11.98,-2.71 -17.97,-3.99c-0.04,-3.06 -0.05,-6.12 -0.04,-9.18Z" style="fill:#fffffe;fill-rule:nonzero;stroke:#fffffe;stroke-width:0.09px;"/><path d="M488.42,199.3c9.84,0.34 19.68,0.92 29.52,1.31c10.3,0.01 20.6,0.12 30.9,-0.1c8.25,-0.63 16.52,-0.73 24.79,-1.21c0.22,3.19 0.26,6.39 0.16,9.58c-4.74,0.93 -9.52,1.6 -14.22,2.63c-3.2,0.77 -6.55,1.75 -8.99,4.07c-1.93,1.94 -2.3,4.81 -2.58,7.41c-0.51,6.32 -0.28,12.67 -0.33,19.01c0.1,44 -0.19,88 0.18,132c0.11,3.91 -0.05,7.99 1.43,11.7c1.47,3.28 5.13,4.67 8.32,5.71c5.43,1.53 10.94,2.75 16.48,3.76c0.22,3.07 0.3,6.14 0.34,9.22c-8.87,-0.19 -17.73,-0.32 -26.57,-0.93c-8.95,-0.23 -17.91,-0.08 -26.86,-0.11c-10.98,-0.12 -21.93,1.4 -32.91,0.83c-0.01,-3 -0.01,-5.99 0.07,-8.98c3.84,-0.81 7.73,-1.35 11.63,-1.8c3.28,-0.3 6.18,-1.96 8.97,-3.59c1.59,-1.04 3.41,-1.97 4.37,-3.7c1.11,-2.19 1.16,-4.71 1.28,-7.11c0,-49.66 -0.01,-99.33 0.01,-149c-0.08,-3.88 0.4,-7.87 -0.63,-11.66c-0.89,-3 -3.83,-4.62 -6.59,-5.57c-6.12,-2.1 -12.58,-2.85 -18.92,-4c0,-3.16 0.04,-6.31 0.15,-9.47Z" style="fill:#fffffe;fill-rule:nonzero;stroke:#fffffe;stroke-width:0.09px;"/><path d="M607.41,199.34c23.84,1.43 47.72,0.9 71.59,0.99c20.14,-0.04 40.37,-1.22 60.42,1.25c17.72,1.73 35.32,6.33 50.93,15.04c16.71,8.54 30.29,22.8 38.42,39.67c6.25,12.26 8.35,26.11 9.35,39.7c0.86,19.59 -2.98,39.84 -13.62,56.55c-5.1,7.69 -10.49,15.37 -17.66,21.29c-19.76,17.58 -45.93,26.37 -71.91,29.02c-7.92,1.2 -15.95,0.72 -23.93,0.82c-9.66,-0.02 -19.32,0.13 -28.97,-0.28c-14.35,-0.08 -28.69,-0.02 -43.04,-0.03c-10.62,-0.18 -21.22,1.38 -31.84,0.77c0.02,-2.95 0.04,-5.9 0.09,-8.84c5.64,-1.21 11.23,-2.64 16.8,-4.17c3.29,-0.96 6.76,-2.36 8.83,-5.25c1.47,-2.35 1.62,-5.22 1.74,-7.9c0.05,-48.99 -0.04,-97.98 0.01,-146.97c-0.12,-4.36 0.69,-9.08 -1.44,-13.11c-1.75,-3.49 -5.67,-5.02 -9.23,-5.93c-5.53,-1.32 -11.15,-2.24 -16.76,-3.13c-0.11,-3.17 -0.04,-6.33 0.22,-9.49m62.99,14.2c-1.75,0.17 -3.44,1.61 -3.12,3.51c-0.12,52.99 0.01,106 0,158.99c0.05,2.89 0.19,6.15 2.35,8.34c2.31,2.19 5.62,2.7 8.62,3.34c16.8,2.94 34.03,2.73 50.9,0.55c15.75,-1.68 31.56,-6.29 44.61,-15.5c10.42,-7.79 19.08,-18.39 23.19,-30.85c2.04,-6.1 3.55,-12.38 4.31,-18.77c1.95,-17.99 1.06,-36.53 -4.66,-53.8c-0.72,-2.11 -1.82,-4.06 -2.85,-6.02c-2.28,-3.96 -2.88,-8.7 -5.68,-12.4c-3.9,-5.37 -7.83,-11.13 -13.71,-14.5c-3,-1.95 -5.58,-4.48 -8.7,-6.22c-4.85,-3.1 -10.31,-4.99 -15.43,-7.56c-5.06,-2.52 -10.71,-3.35 -16.06,-5.03c-4.2,-1.34 -8.61,-1.79 -12.89,-2.82c-8.57,-2.28 -17.52,-1.22 -26.28,-1.45c-8.2,0.18 -16.42,-0.29 -24.6,0.19Z" style="fill:#fffffe;fill-rule:nonzero;stroke:#fffffe;stroke-width:0.09px;"/><path d="M967.37,212.4c15.98,-2.19 32.74,-0.22 47.28,7.01c9.67,4.7 18.68,11.07 25.6,19.37c9.65,11.35 16.06,25.29 19.17,39.82c3.65,15.48 5.02,31.51 3.86,47.38c-1.02,17.03 -8.77,33.46 -20.85,45.44c-6.67,6.01 -14.41,10.86 -22.67,14.36c-18.69,7.25 -40.2,7.93 -58.9,0.35c-6.78,-2.79 -12.94,-6.88 -18.87,-11.13c-14.43,-11.48 -24.38,-27.99 -29.37,-45.63c-4.55,-13.98 -6.41,-28.71 -6.63,-43.37c-0.02,-9.62 1.22,-19.35 4.58,-28.41c5.67,-17.07 18.88,-31.49 35.39,-38.63c6.8,-3.14 14.01,-5.38 21.41,-6.56Z" style="fill:#af2025;fill-rule:nonzero;stroke:#af2025;stroke-width:0.09px;"/><path d="M670.4,213.54c8.18,-0.48 16.4,-0.01 24.6,-0.19c8.76,0.23 17.71,-0.83 26.28,1.45c4.28,1.03 8.69,1.48 12.89,2.82c5.35,1.68 11,2.51 16.06,5.03c5.12,2.57 10.58,4.46 15.43,7.56c3.12,1.74 5.7,4.27 8.7,6.22c5.88,3.37 9.81,9.13 13.71,14.5c2.8,3.7 3.4,8.44 5.68,12.4c1.03,1.96 2.13,3.91 2.85,6.02c5.72,17.27 6.61,35.81 4.66,53.8c-0.76,6.39 -2.27,12.67 -4.31,18.77c-4.11,12.46 -12.77,23.06 -23.19,30.85c-13.05,9.21 -28.86,13.82 -44.61,15.5c-16.87,2.18 -34.1,2.39 -50.9,-0.55c-3,-0.64 -6.31,-1.15 -8.62,-3.34c-2.16,-2.19 -2.3,-5.45 -2.35,-8.34c0.01,-52.99 -0.12,-106 0,-158.99c-0.32,-1.9 1.37,-3.34 3.12,-3.51Z" style="fill:#af2025;fill-rule:nonzero;stroke:#af2025;stroke-width:0.09px;"/><path d="M1124.29,233.28c2.09,-3.74 6.83,-6.12 11.01,-4.57c4.43,1.79 6.95,6.3 8.4,10.62c1.8,5.11 1.52,10.68 0.53,15.93c-2.18,11.16 -5.43,22.32 -11.54,32.02c-1.7,-0.89 -3.32,-1.91 -4.84,-3.04c2.32,-4.54 5.11,-8.92 6.51,-13.86c0.58,-2.23 0.94,-5.07 -1.01,-6.76c-3.44,-3.21 -8.28,-5.03 -10.5,-9.43c-3.37,-6.53 -2.2,-14.73 1.44,-20.91Z" style="fill:#fffffe;fill-rule:nonzero;stroke:#fffffe;stroke-width:0.09px;"/><path d="M1154.24,329.23c4.69,-6.21 12.48,-9.22 20.03,-9.84c7.61,-0.65 15,1.77 22.16,4.04c1.05,5.76 1.77,11.57 2.4,17.39c-1.28,0.14 -2.55,0.26 -3.8,0.35c-1.9,-4.52 -3.72,-9.4 -7.68,-12.53c-5.71,-4.43 -14.02,-5.03 -20.41,-1.77c-4.9,2.51 -7.91,8.76 -5.99,14.06c0.91,2.79 2.81,5.21 5.25,6.85c5.44,3.64 11.59,6.01 17.65,8.43c6.13,2.63 12.38,6.16 15.82,12.1c3.42,5.58 3.39,12.7 1.32,18.76c-3.32,8.53 -11.97,13.8 -20.73,15.19c-10.24,1.46 -21.03,-0.23 -29.97,-5.57c-1.31,-6.32 -2.21,-12.71 -2.99,-19.11c1.33,-0.34 2.68,-0.68 4.03,-1.03c2.77,4.66 3.86,10.36 7.97,14.15c6.31,6.65 17.31,8.62 25.31,3.94c7.35,-4.71 7.21,-16.59 0.58,-21.84c-7.59,-5.75 -17.17,-7.78 -25.13,-12.86c-4.7,-3.01 -8.76,-7.53 -9.91,-13.12c-1.43,-6.1 0.16,-12.73 4.09,-17.59Z" style="fill:#fffffe;fill-rule:nonzero;stroke:#fffffe;stroke-width:0.09px;"/><path d="M798.43,539.55c5.93,-1.08 11.66,-2.97 17.45,-4.6c0.43,11.72 -0.18,23.45 0.21,35.17c4.93,-2.28 10.04,-4.9 15.63,-4.67c8.79,0.45 17.1,6.4 20.25,14.63c2.08,5.4 2.65,11.42 1.3,17.06c-1.94,10.06 -9.99,18.58 -19.81,21.35c-9.28,2.37 -19.21,0.6 -27.77,-3.4c-0.14,-22.03 -0.05,-44.07 -0.04,-66.11c-0.1,-1.29 0.02,-2.73 -0.8,-3.81c-1.48,-2.16 -4.4,-1.95 -6.65,-2.54c0.06,-1.04 0.14,-2.06 0.23,-3.08m17.59,35.36c0.1,9.38 -0.17,18.77 -0.05,28.16c0.12,2.44 0.07,5.2 1.72,7.21c2.12,2.6 5.5,3.79 8.73,4.28c5.26,0.69 10.4,-2.7 12.79,-7.27c3.96,-7.57 4.66,-16.92 1.26,-24.82c-2.44,-5.35 -7.49,-9.98 -13.6,-10.21c-3.83,-0.43 -7.48,1.02 -10.85,2.65Z" style="fill:#af2025;fill-rule:nonzero;stroke:#af2025;stroke-width:0.09px;"/><path d="M534.38,542.26c3.3,-1 7.03,1.12 8.13,4.34c1.37,3.15 -0.49,7.16 -3.63,8.41c-3.6,1.59 -8.57,-0.58 -9.33,-4.57c-0.84,-3.42 1.38,-7.3 4.83,-8.18Z" style="fill:#af2025;fill-rule:nonzero;stroke:#af2025;stroke-width:0.09px;"/><path d="M761.32,542.3c2.02,-0.37 4.17,0.23 5.84,1.42c2.18,1.6 2.46,4.66 2,7.13c-0.68,3.16 -4.11,4.88 -7.14,4.54c-3.44,0.13 -6.22,-3.1 -6.26,-6.4c-0.2,-3.23 2.54,-6.01 5.56,-6.69Z" style="fill:#af2025;fill-rule:nonzero;stroke:#af2025;stroke-width:0.09px;"/><path d="M1024.42,542.38c2.98,-1.03 6.66,0.27 8,3.23c1.67,3.16 0.34,7.45 -2.85,9.08c-3.04,1.35 -7.2,0.62 -8.91,-2.44c-2.39,-3.49 -0.24,-8.77 3.76,-9.87Z" style="fill:#af2025;fill-rule:nonzero;stroke:#af2025;stroke-width:0.09px;"/><path d="M151.74,542.87c18.08,-0.32 36.17,-0.25 54.25,-0.07c0.12,6.08 0.47,12.15 0.23,18.23c-1.34,-0.08 -2.68,-0.15 -4.02,-0.22c-0.99,-3.43 -1.86,-7.05 -4.12,-9.9c-2.19,-2.67 -5.76,-3.64 -9.09,-3.57c-4.84,0.06 -9.69,-0.24 -14.51,0.12c-1.74,0.75 -1.24,2.97 -1.53,4.48c-0.36,8.61 -0.33,17.24 0.03,25.85c5.02,-0.19 10.05,-0.1 15.08,-0.08c2.32,-0.07 5.06,0 6.76,-1.87c1.77,-2.15 1.98,-5.2 3.79,-7.28c1.16,-0.1 2.33,-0.06 3.5,-0.04c-0.31,7.86 -0.6,15.74 -0.34,23.61c-1.21,0 -2.42,0 -3.63,-0.01c-0.88,-2.42 -1.4,-5.15 -3.25,-7.05c-1.76,-1.86 -4.5,-1.7 -6.84,-1.78c-5,0.01 -10,0.1 -15,-0.06c-0.49,7.6 -0.41,15.22 -0.12,22.83c0.21,2.05 0.11,4.66 2.08,5.94c2.73,1.88 6.15,2.15 9.31,2.85c-0.04,0.84 -0.12,2.52 -0.16,3.36c-10.99,0.09 -22.02,0.49 -32.99,-0.24c0.07,-1.16 0.15,-2.32 0.23,-3.47c2.74,-0.48 5.76,-0.44 8.18,-1.99c2.14,-1.41 2.08,-4.19 2.13,-6.44c-0.06,-17.05 -0.04,-34.1 -0.01,-51.14c-0.13,-2.05 0.14,-4.6 -1.73,-5.96c-2.28,-1.78 -5.34,-1.74 -8.06,-2.18c-0.1,-1.31 -0.15,-2.62 -0.17,-3.92Z" style="fill:#af2025;fill-rule:nonzero;stroke:#af2025;stroke-width:0.09px;"/><path d="M418.07,542.82c11.64,-0.2 23.28,-0.07 34.93,-0.16c8.43,-0.14 16.99,1.07 24.75,4.5c7.85,3.41 14.13,10.27 16.7,18.45c4.81,14.67 0.74,32.48 -11.37,42.47c-6.28,4.84 -13.76,8.14 -21.59,9.47c-6.43,1.18 -12.99,0.74 -19.49,0.79c-8,-0.06 -16,0.1 -24,-0.1c-0.04,-0.86 -0.12,-2.58 -0.17,-3.44c3.04,-0.77 6.54,-0.81 9.07,-2.85c1.64,-2.27 1.24,-5.32 1.46,-7.96c-0.05,-16 0.05,-32 -0.07,-48c-0.23,-2.67 0.23,-6.26 -2.56,-7.75c-2.47,-1.18 -5.23,-1.47 -7.86,-2.06c0.05,-0.84 0.15,-2.52 0.2,-3.36m28.33,4.65c-2.55,0.35 -6.72,0.44 -6.98,3.79c-0.18,16.93 0,33.87 -0.11,50.81c-0.11,3.96 1.42,8.54 5.18,10.39c6.54,2.04 13.61,0.93 20.05,-0.96c8.52,-2.67 14.54,-10.26 17.37,-18.46c2.16,-7.93 2.45,-16.43 0.42,-24.42c-2.33,-9.01 -9.29,-16.89 -18.3,-19.57c-5.71,-1.61 -11.73,-2.07 -17.63,-1.58Z" style="fill:#af2025;fill-rule:nonzero;stroke:#af2025;stroke-width:0.09px;"/><path d="M446.4,547.47c5.9,-0.49 11.92,-0.03 17.63,1.58c9.01,2.68 15.97,10.56 18.3,19.57c2.03,7.99 1.74,16.49 -0.42,24.42c-2.83,8.2 -8.85,15.79 -17.37,18.46c-6.44,1.89 -13.51,3 -20.05,0.96c-3.76,-1.85 -5.29,-6.43 -5.18,-10.39c0.11,-16.94 -0.07,-33.88 0.11,-50.81c0.26,-3.35 4.43,-3.44 6.98,-3.79Z" style="fill:#fffffe;fill-opacity:0;fill-rule:nonzero;stroke:#fffffe;stroke-width:0.09px;"/><path d="M640.85,556.93c2.73,-2.42 5.18,-5.21 8.28,-7.18c0.46,0.03 1.38,0.08 1.84,0.11c0.33,5.64 -0.17,11.29 0.15,16.93c4.71,-0.21 9.44,-0.22 14.15,0.22c-0.34,1.73 -0.68,3.46 -1.04,5.2c-4.37,0.04 -8.74,0.08 -13.11,-0.01c-0.11,9.28 -0.1,18.56 -0.1,27.84c0.08,2.92 -0.05,6.01 1.22,8.72c0.98,2.13 3.14,3.91 5.59,3.73c2.54,-0.32 4.82,-1.62 7.15,-2.61c0.63,1.32 1.27,2.65 1.91,3.99c-3.87,2.25 -7.65,4.99 -12.12,5.86c-4.3,0.35 -9.43,-0.78 -11.79,-4.74c-2.45,-3.86 -2.3,-8.61 -2.33,-12.99c0.12,-9.93 -0.14,-19.87 0.13,-29.79c-2.79,-0.1 -5.57,-0.2 -8.35,-0.35c0.58,-1.78 0.88,-4.03 2.88,-4.78c1.79,-0.38 3.63,-0.36 5.47,-0.44c-0.02,-3.24 -0.02,-6.48 0.07,-9.71Z" style="fill:#af2025;fill-rule:nonzero;stroke:#af2025;stroke-width:0.09px;"/><path d="M967.15,557.37c2.76,-3.16 5.91,-6.19 9.83,-7.85c0.51,5.76 0.19,11.55 0.19,17.33c4.74,-0.14 9.48,-0.22 14.23,0.06c-0.38,1.67 0.29,4.1 -1.63,4.99c-4.19,0.58 -8.43,0.21 -12.63,0.24c0.29,9.63 0.14,19.27 0.14,28.91c0.06,2.82 0.09,5.77 1.26,8.4c0.74,1.74 2.6,2.76 4.47,2.74c2.76,-0.04 5.31,-1.26 7.89,-2.14c0.66,1.28 1.32,2.57 2,3.87c-4.26,2.24 -8.42,5.06 -13.28,5.73c-4.3,0.66 -8.81,-1.61 -10.88,-5.41c-2.23,-3.67 -2.03,-8.12 -2.08,-12.25c0.09,-9.91 -0.1,-19.82 0.12,-29.72c-3.05,0.03 -6.1,-0.04 -9.13,-0.27c0.91,-1.51 1.55,-3.36 3.15,-4.3c1.72,-0.78 3.62,-1.02 5.44,-1.56c0.8,-2.86 0.04,-5.93 0.91,-8.77Z" style="fill:#af2025;fill-rule:nonzero;stroke:#af2025;stroke-width:0.09px;"/><path d="M309.15,570.12c6.01,-1.51 11.97,-3.19 17.79,-5.3c0.08,4.07 0.15,8.15 0.28,12.23c3.18,-4.08 6.21,-8.77 11.11,-10.95c2.75,-0.82 6.24,-0.88 8.49,1.16c3.58,3.15 1.46,9.79 -2.93,10.97c-3.22,0.11 -5.81,-4.36 -9.16,-2.46c-3.49,2.05 -6.51,5.41 -7.48,9.41c-0.58,5.25 -0.09,10.54 -0.21,15.82c0.14,3.41 -0.33,6.97 0.74,10.27c1.87,3.09 6.07,2.85 9.16,3.82c-0.22,1.07 -0.48,2.13 -0.76,3.2c-9.21,0.05 -18.42,0.24 -27.62,-0.14c0.07,-0.72 0.22,-2.15 0.3,-2.87c1.69,-1.79 4.91,-0.93 6.58,-2.87c1.41,-1.4 1.17,-3.54 1.27,-5.34c-0.07,-9.05 -0.09,-18.09 0.01,-27.14c-0.11,-1.78 0.23,-4.05 -1.46,-5.21c-1.73,-1.2 -3.82,-1.63 -5.78,-2.29c-0.08,-0.58 -0.25,-1.74 -0.33,-2.31Z" style="fill:#af2025;fill-rule:nonzero;stroke:#af2025;stroke-width:0.09px;"/><path d="M523.97,569.91c6.12,-1.17 12.11,-2.88 18.03,-4.82c0.21,10.63 0.01,21.27 0.16,31.92c0.14,4.54 -0.43,9.14 0.27,13.65c0.86,3.37 4.85,3.72 7.65,4.46c0.06,0.76 0.19,2.28 0.25,3.04c-9.13,0.29 -18.26,0.24 -27.39,0.07c0.04,-0.82 0.12,-2.46 0.16,-3.28c2.13,-0.41 4.32,-0.67 6.36,-1.48c2.07,-1.42 2.26,-4.12 2.23,-6.4c-0.07,-8.71 -0.07,-17.41 -0.01,-26.11c-0.04,-2.52 -0.01,-5.64 -2.42,-7.15c-1.66,-0.67 -3.49,-0.65 -5.23,-0.89c-0.02,-0.75 -0.04,-2.25 -0.06,-3.01Z" style="fill:#af2025;fill-rule:nonzero;stroke:#af2025;stroke-width:0.09px;"/><path d="M584.33,567.29c6.88,-3 14.93,-2.33 21.68,0.68c0.6,3.96 1.62,7.85 1.96,11.85c-1.05,0.73 -2.38,0.81 -3.57,1.15c-1.18,-2.54 -2.27,-5.17 -3.99,-7.4c-3.05,-4 -9.49,-4.65 -13.4,-1.59c-1.98,1.95 -3.29,5.2 -1.95,7.87c1.33,2.98 4.45,4.5 7.25,5.83c5.11,2.31 10.81,3.96 14.7,8.26c5.43,5.35 4.71,15.21 -0.97,20.11c-6.14,5.85 -15.6,6.91 -23.49,4.55c-2.36,-0.8 -5.22,-1.34 -6.69,-3.54c-1.88,-4.55 -1.8,-9.6 -1.96,-14.43c1.29,0.07 2.58,0.23 3.86,0.48c1.51,2.85 2.37,6.1 4.56,8.56c2.27,2.58 5.27,4.83 8.8,5.17c2.62,0.28 5.69,-0.1 7.46,-2.28c1.61,-2.14 2.56,-5.08 1.64,-7.69c-0.85,-2.58 -3.04,-4.42 -5.3,-5.74c-4.48,-2.59 -9.57,-4.11 -13.63,-7.39c-2.91,-2.35 -5.35,-5.61 -5.73,-9.43c-0.67,-6.17 3.05,-12.58 8.77,-15.02Z" style="fill:#af2025;fill-rule:nonzero;stroke:#af2025;stroke-width:0.09px;"/><path d="M687.97,570.46c5.61,-2.1 11.56,-3.09 17.12,-5.35c0.22,4.02 0.3,8.05 0.38,12.09c2.99,-3.57 5.32,-7.95 9.54,-10.25c3,-1.66 7.06,-2.28 9.95,-0.06c2.95,1.99 3.11,6.47 1.11,9.18c-1.09,1.26 -2.56,2.13 -3.91,3.08c-2.05,-1.38 -4.01,-2.94 -6.32,-3.85c-4.56,0.12 -7.86,4.14 -9.39,8.09c-0.69,2.81 -0.4,5.74 -0.43,8.61c0.13,5.35 -0.16,10.7 0.01,16.05c0.09,1.77 0.2,4 1.99,4.95c2.38,1.17 5.07,1.46 7.65,2.01c0.05,0.78 0.13,2.33 0.17,3.11c-9.58,0.37 -19.19,0.42 -28.77,-0.05c0.13,-1.17 0.26,-2.34 0.41,-3.5c2.53,-0.52 5.91,-0.31 7.3,-2.96c0.69,-2.48 0.56,-5.08 0.61,-7.61c-0.07,-7 -0.06,-14 -0.01,-21c-0.05,-2.54 0.01,-5.13 -0.73,-7.58c-1.94,-2.09 -5.85,-1.82 -6.68,-4.96Z" style="fill:#af2025;fill-rule:nonzero;stroke:#af2025;stroke-width:0.09px;"/><path d="M1143.1,570.07c5.25,-1.88 10.78,-3.01 16.03,-4.98c0.18,2.93 0.3,5.87 0.46,8.82c4.52,-3.04 8.72,-6.94 14.16,-8.25c5.3,-1.24 11.53,0.18 15.04,4.56c2.99,3.51 3.87,8.24 4.13,12.71c0.38,9.01 -0.21,18.04 0.22,27.04c0.07,3.83 4.71,4.24 7.53,5.18c0.04,0.73 0.12,2.19 0.17,2.92c-8.62,0.51 -17.26,0.3 -25.89,0.15c0.06,-0.8 0.17,-2.39 0.22,-3.18c2.11,-0.66 4.75,-0.77 6.14,-2.74c1.6,-2.05 1.32,-4.81 1.41,-7.24c-0.1,-5.71 -0.06,-11.41 -0.02,-17.12c-0.05,-3.82 -0.2,-7.95 -2.45,-11.2c-2.71,-3.88 -8.4,-4.8 -12.55,-2.89c-2.62,1.23 -5.18,2.68 -7.32,4.64c-0.96,2.36 -0.68,5.01 -0.77,7.52c0.13,7.01 -0.05,14.02 0.09,21.03c0.19,1.94 -0.02,4.29 1.57,5.74c1.69,1.22 3.85,1.52 5.83,2.14c-0.02,0.84 -0.07,2.5 -0.09,3.34c-8.65,0.13 -17.3,0.14 -25.95,-0.02c-0.04,-0.85 -0.12,-2.55 -0.15,-3.4c2.6,-0.75 6.31,-0.45 7.68,-3.3c0.73,-2.44 0.66,-5.03 0.75,-7.54c0.01,-6.67 -0.05,-13.33 0.02,-19.99c-0.06,-2.88 0.07,-5.82 -0.72,-8.61c-1.71,-1.85 -4.38,-2.21 -6.61,-3.09c0.33,-0.76 0.69,-1.51 1.07,-2.24Z" style="fill:#af2025;fill-rule:nonzero;stroke:#af2025;stroke-width:0.09px;"/><path d="M251.35,566.36c7.11,-1.53 15.06,-1.05 21.32,2.96c5.29,3.48 9.4,8.89 10.96,15.08c1.44,5.79 1.43,12.02 -0.52,17.69c-2.67,7.62 -8.91,14.08 -16.7,16.44c-8.25,2.72 -17.86,1.25 -24.66,-4.24c-4.1,-3.04 -7.42,-7.21 -8.9,-12.13c-3.49,-9.6 -1.08,-20.98 5.89,-28.41c3.49,-3.46 7.83,-6.17 12.61,-7.39m3.06,4.12c-4.79,1.34 -8.1,5.68 -9.65,10.23c-2.34,6.85 -1.58,14.36 0.33,21.22c1.88,6.32 7.13,12.35 14.02,12.91c4.64,0.52 9.04,-2.53 11.05,-6.57c2.6,-5.37 3.02,-11.47 2.68,-17.34c-0.27,-5.06 -1.65,-10.14 -4.4,-14.43c-2.94,-4.5 -8.63,-7.58 -14.03,-6.02Z" style="fill:#af2025;fill-rule:nonzero;stroke:#af2025;stroke-width:0.09px;"/><path d="M751.1,570.1c5.99,-1.33 11.84,-3.21 17.85,-4.5c0.24,14.45 -0.12,28.91 0.2,43.35c0.12,4.43 4.95,5.79 8.57,6.15c0.04,0.77 0.12,2.3 0.16,3.06c-9.29,0.34 -18.59,0.24 -27.88,0.05c0.05,-0.8 0.16,-2.41 0.22,-3.22c2,-0.5 4.13,-0.76 5.97,-1.77c2.32,-1.59 2.51,-4.62 2.5,-7.16c-0.06,-8.37 -0.07,-16.74 -0.01,-25.11c-0.11,-2.06 0.12,-4.54 -1.57,-6.05c-1.75,-1.22 -3.92,-1.56 -5.9,-2.19c-0.02,-0.65 -0.08,-1.95 -0.11,-2.61Z" style="fill:#af2025;fill-rule:nonzero;stroke:#af2025;stroke-width:0.09px;"/><path d="M878,567.89c5.9,-0.37 11.78,-1.1 17.66,-1.75c0.03,9.61 0.01,19.23 -0.05,28.85c0,4.4 0.25,9.04 2.51,12.95c1.74,2.96 5.48,4.06 8.75,3.79c4,-0.37 7.85,-2.27 10.76,-5.02c1.61,-1.41 0.95,-3.78 1.16,-5.65c-0.32,-8.87 0.22,-17.77 -0.29,-26.62c-1.64,-2.97 -5.47,-2.9 -8.37,-3.45c-0.02,-0.75 -0.05,-2.24 -0.07,-2.99c6.27,-0.61 12.54,-1.19 18.8,-1.92c0.33,10.3 0.08,20.61 0.16,30.92c0.08,4.18 -0.31,8.41 0.42,12.55c1.89,2.22 4.97,2.15 7.63,2.41c0.26,0.94 0.54,1.89 0.82,2.85c-6.2,2.01 -12.53,3.77 -19.02,4.55c-0.12,-2.79 -0.15,-5.56 -0.17,-8.34c-4.6,3.56 -9.33,7.54 -15.26,8.49c-5.84,1.14 -12.44,-1.27 -15.54,-6.48c-3.06,-5.1 -3.12,-11.27 -3.04,-17.03c0.21,-7.45 -0.05,-14.9 0.17,-22.35c-1.98,-1.64 -4.43,-2.43 -6.96,-2.68c-0.02,-0.77 -0.05,-2.31 -0.07,-3.08Z" style="fill:#af2025;fill-rule:nonzero;stroke:#af2025;stroke-width:0.09px;"/><path d="M1014.35,570.32c5.83,-1.83 11.79,-3.16 17.71,-4.64c0.68,14.68 -0.08,29.4 0.38,44.08c0.56,3.96 5.14,4.62 8.35,5.27c0.04,0.79 0.11,2.37 0.15,3.15c-9.03,0.3 -18.07,0.21 -27.1,0.08c-0.04,-0.85 -0.12,-2.54 -0.16,-3.38c2.14,-0.53 4.47,-0.67 6.42,-1.79c1.61,-1.55 1.52,-3.97 1.62,-6.02c-0.03,-9.05 -0.1,-18.09 0.01,-27.13c-0.15,-1.59 0.25,-3.49 -0.99,-4.73c-1.74,-1.59 -4.17,-1.96 -6.3,-2.73c-0.02,-0.54 -0.06,-1.62 -0.09,-2.16Z" style="fill:#af2025;fill-rule:nonzero;stroke:#af2025;stroke-width:0.09px;"/><path d="M1083.38,566.4c9.38,-2.27 20.44,-0.29 26.95,7.3c9.99,10.86 8.88,29.76 -2.21,39.46c-8.8,8.09 -23.43,9.08 -33.01,1.8c-8.16,-5.28 -12.19,-15.51 -11.35,-24.99c0.94,-10.87 9.13,-20.64 19.62,-23.57m4.02,4.04c-4.47,0.81 -7.59,4.65 -9.44,8.55c-2.12,4.37 -2.09,9.36 -1.9,14.1c0.28,5.54 1.45,11.38 5.11,15.74c2.85,3.52 7.1,6.43 11.82,6.06c4.11,-0.04 7.57,-3.03 9.4,-6.52c3.16,-5.91 3.26,-12.87 2.69,-19.38c-0.41,-5.02 -2.1,-9.97 -5.16,-13.98c-2.84,-3.76 -7.94,-5.6 -12.52,-4.57Z" style="fill:#af2025;fill-rule:nonzero;stroke:#af2025;stroke-width:0.09px;"/><path d="M254.41,570.48c5.4,-1.56 11.09,1.52 14.03,6.02c2.75,4.29 4.13,9.37 4.4,14.43c0.34,5.87 -0.08,11.97 -2.68,17.34c-2.01,4.04 -6.41,7.09 -11.05,6.57c-6.89,-0.56 -12.14,-6.59 -14.02,-12.91c-1.91,-6.86 -2.67,-14.37 -0.33,-21.22c1.55,-4.55 4.86,-8.89 9.65,-10.23Z" style="fill:#fffffe;fill-opacity:0;fill-rule:nonzero;stroke:#fffffe;stroke-width:0.09px;"/><path d="M1087.4,570.44c4.58,-1.03 9.68,0.81 12.52,4.57c3.06,4.01 4.75,8.96 5.16,13.98c0.57,6.51 0.47,13.47 -2.69,19.38c-1.83,3.49 -5.29,6.48 -9.4,6.52c-4.72,0.37 -8.97,-2.54 -11.82,-6.06c-3.66,-4.36 -4.83,-10.2 -5.11,-15.74c-0.19,-4.74 -0.22,-9.73 1.9,-14.1c1.85,-3.9 4.97,-7.74 9.44,-8.55Z" style="fill:#fffffe;fill-opacity:0;fill-rule:nonzero;stroke:#fffffe;stroke-width:0.09px;"/><path d="M816.02,574.91c3.37,-1.63 7.02,-3.08 10.85,-2.65c6.11,0.23 11.16,4.86 13.6,10.21c3.4,7.9 2.7,17.25 -1.26,24.82c-2.39,4.57 -7.53,7.96 -12.79,7.27c-3.23,-0.49 -6.61,-1.68 -8.73,-4.28c-1.65,-2.01 -1.6,-4.77 -1.72,-7.21c-0.12,-9.39 0.15,-18.78 0.05,-28.16Z" style="fill:#fffffe;fill-opacity:0;fill-rule:nonzero;stroke:#fffffe;stroke-width:0.09px;"/></svg>